<svg width="77" height="77" viewBox="0 0 77 77" fill="none" xmlns="http://www.w3.org/2000/svg">
<rect width="77" height="77" rx="38.5" fill="black" fill-opacity="0.3"/>
<mask id="mask0_180_73" style="mask-type:alpha" maskUnits="userSpaceOnUse" x="0" y="0" width="77" height="77">
<rect width="77" height="77" rx="38.5" fill="#D9D9D9"/>
</mask>
<g mask="url(#mask0_180_73)">
<path d="M38 50.5C52.0833 50.5 63.5 61.9167 63.5 76C63.5 90.0833 52.0833 101.5 38 101.5C23.9167 101.5 12.5 90.0833 12.5 76C12.5 61.9167 23.9167 50.5 38 50.5Z" fill="#D9D9D9" stroke="black"/>
</g>
<path d="M38 15.5C46.5604 15.5 53.5 22.4396 53.5 31C53.5 39.5604 46.5604 46.5 38 46.5C29.4396 46.5 22.5 39.5604 22.5 31C22.5 22.4396 29.4396 15.5 38 15.5Z" fill="#D9D9D9" stroke="black"/>
</svg>
